<svg width="133" height="74" viewBox="0 0 133 74" fill="none" xmlns="http://www.w3.org/2000/svg">
<path d="M64.672 9.51899H62.78C62.529 9.51899 62.321 9.72499 62.321 9.97699V51.136C62.321 51.387 62.528 53.5 62.78 53.5H64.672C64.925 53.5 65.131 51.388 65.131 51.136V9.97699C65.131 9.72599 64.925 9.51899 64.672 9.51899ZM71.262 24.381H69.37C69.118 24.381 68.911 24.588 68.911 24.839V32.619C68.911 32.87 69.117 33.078 69.37 33.078H71.262C71.515 33.078 71.72 32.87 71.72 32.619V24.839C71.72 24.588 71.515 24.381 71.262 24.381ZM101.625 9.11899H87.961V4.49999C87.961 2.01399 85.947 -8.18413e-06 83.46 -8.18413e-06H42.643C40.156 0.000991816 38.142 2.01499 38.142 4.49999V9.11899H24.458C24.207 9.11899 24 9.32499 24 9.57699V11.469C24 11.722 24.207 11.927 24.458 11.927H27.229V51.136C27.229 51.387 27.435 51.594 27.687 51.594H29.579C29.832 51.594 30.037 51.388 30.037 51.136V11.927H32.443V51.136C32.443 51.387 32.65 51.594 32.902 51.594H34.794C35.047 51.594 35.253 51.388 35.253 51.136V11.927H38.145V52.1781L39.5 53L40.0765 52.7117C40.3549 52.5726 40.5963 52.3694 40.7809 52.1189C40.9992 51.8228 41.117 51.4645 41.117 51.0966V4.49999C41.118 3.65599 41.801 2.97299 42.646 2.97299H83.463C84.307 2.97299 84.991 3.65599 84.992 4.49999V50.9613C84.992 51.3445 85.0861 51.7218 85.266 52.0601C85.4182 52.3462 85.6558 52.5779 85.9456 52.7228L86.1284 52.8142C86.3728 52.9364 86.6422 53 86.9154 53H87.964V11.927H90.624V51.136C90.624 51.387 90.831 51.594 91.082 51.594H92.974C93.227 51.594 93.431 51.388 93.431 51.136V11.927H95.563V51.136C95.563 51.387 95.77 53.5 96.021 53.5H97.913C98.166 53.5 98.371 51.388 98.371 51.136V11.927H101.628C101.881 11.927 102.087 11.722 102.087 11.469V9.57699C102.084 9.32499 101.877 9.11899 101.625 9.11899ZM58.5 24.381H56.608C56.356 24.381 56.149 24.588 56.149 24.839V32.619C56.149 32.87 56.356 33.078 56.608 33.078H58.5C58.753 33.078 58.958 32.87 58.958 32.619V24.839C58.958 24.588 58.753 24.381 58.5 24.381Z" fill="#FE7339"/>
<path d="M64.672 9.51899H62.78C62.529 9.51899 62.321 9.72499 62.321 9.97699V51.136C62.321 51.387 62.528 53.5 62.78 53.5H64.672C64.925 53.5 65.131 51.388 65.131 51.136V9.97699C65.131 9.72599 64.925 9.51899 64.672 9.51899ZM71.262 24.381H69.37C69.118 24.381 68.911 24.588 68.911 24.839V32.619C68.911 32.87 69.117 33.078 69.37 33.078H71.262C71.515 33.078 71.72 32.87 71.72 32.619V24.839C71.72 24.588 71.515 24.381 71.262 24.381ZM101.625 9.11899H87.961V4.49999C87.961 2.01399 85.947 -8.18413e-06 83.46 -8.18413e-06H42.643C40.156 0.000991816 38.142 2.01499 38.142 4.49999V9.11899H24.458C24.207 9.11899 24 9.32499 24 9.57699V11.469C24 11.722 24.207 11.927 24.458 11.927H27.229V51.136C27.229 51.387 27.435 51.594 27.687 51.594H29.579C29.832 51.594 30.037 51.388 30.037 51.136V11.927H32.443V51.136C32.443 51.387 32.65 51.594 32.902 51.594H34.794C35.047 51.594 35.253 51.388 35.253 51.136V11.927H38.145V52.1781L39.5 53L40.0765 52.7117C40.3549 52.5726 40.5963 52.3694 40.7809 52.1189C40.9992 51.8228 41.117 51.4645 41.117 51.0966V4.49999C41.118 3.65599 41.801 2.97299 42.646 2.97299H83.463C84.307 2.97299 84.991 3.65599 84.992 4.49999V50.9613C84.992 51.3445 85.0861 51.7218 85.266 52.0601C85.4182 52.3462 85.6558 52.5779 85.9456 52.7228L86.1284 52.8142C86.3728 52.9364 86.6422 53 86.9154 53H87.964V11.927H90.624V51.136C90.624 51.387 90.831 51.594 91.082 51.594H92.974C93.227 51.594 93.431 51.388 93.431 51.136V11.927H95.563V51.136C95.563 51.387 95.77 53.5 96.021 53.5H97.913C98.166 53.5 98.371 51.388 98.371 51.136V11.927H101.628C101.881 11.927 102.087 11.722 102.087 11.469V9.57699C102.084 9.32499 101.877 9.11899 101.625 9.11899ZM58.5 24.381H56.608C56.356 24.381 56.149 24.588 56.149 24.839V32.619C56.149 32.87 56.356 33.078 56.608 33.078H58.5C58.753 33.078 58.958 32.87 58.958 32.619V24.839C58.958 24.588 58.753 24.381 58.5 24.381Z" fill="#271F1F" fill-opacity="0.3"/>
<path d="M64.672 9.51899H62.78C62.529 9.51899 62.321 9.72499 62.321 9.97699V51.136C62.321 51.387 62.528 53.5 62.78 53.5H64.672C64.925 53.5 65.131 51.388 65.131 51.136V9.97699C65.131 9.72599 64.925 9.51899 64.672 9.51899ZM71.262 24.381H69.37C69.118 24.381 68.911 24.588 68.911 24.839V32.619C68.911 32.87 69.117 33.078 69.37 33.078H71.262C71.515 33.078 71.72 32.87 71.72 32.619V24.839C71.72 24.588 71.515 24.381 71.262 24.381ZM101.625 9.11899H87.961V4.49999C87.961 2.01399 85.947 -8.18413e-06 83.46 -8.18413e-06H42.643C40.156 0.000991816 38.142 2.01499 38.142 4.49999V9.11899H24.458C24.207 9.11899 24 9.32499 24 9.57699V11.469C24 11.722 24.207 11.927 24.458 11.927H27.229V51.136C27.229 51.387 27.435 51.594 27.687 51.594H29.579C29.832 51.594 30.037 51.388 30.037 51.136V11.927H32.443V51.136C32.443 51.387 32.65 51.594 32.902 51.594H34.794C35.047 51.594 35.253 51.388 35.253 51.136V11.927H38.145V52.1781L39.5 53L40.0765 52.7117C40.3549 52.5726 40.5963 52.3694 40.7809 52.1189C40.9992 51.8228 41.117 51.4645 41.117 51.0966V4.49999C41.118 3.65599 41.801 2.97299 42.646 2.97299H83.463C84.307 2.97299 84.991 3.65599 84.992 4.49999V50.9613C84.992 51.3445 85.0861 51.7218 85.266 52.0601C85.4182 52.3462 85.6558 52.5779 85.9456 52.7228L86.1284 52.8142C86.3728 52.9364 86.6422 53 86.9154 53H87.964V11.927H90.624V51.136C90.624 51.387 90.831 51.594 91.082 51.594H92.974C93.227 51.594 93.431 51.388 93.431 51.136V11.927H95.563V51.136C95.563 51.387 95.77 53.5 96.021 53.5H97.913C98.166 53.5 98.371 51.388 98.371 51.136V11.927H101.628C101.881 11.927 102.087 11.722 102.087 11.469V9.57699C102.084 9.32499 101.877 9.11899 101.625 9.11899ZM58.5 24.381H56.608C56.356 24.381 56.149 24.588 56.149 24.839V32.619C56.149 32.87 56.356 33.078 56.608 33.078H58.5C58.753 33.078 58.958 32.87 58.958 32.619V24.839C58.958 24.588 58.753 24.381 58.5 24.381Z" fill="#271F1F" fill-opacity="0.15"/>
<path d="M11.456 55.8489C12.4373 55.8489 13.216 55.5502 13.792 54.9529C14.368 54.3556 14.656 53.6302 14.656 52.7769C14.656 51.9022 14.3787 51.2516 13.824 50.8249C13.2907 50.3769 12.5973 50.1529 11.744 50.1529H10.464L9.92 55.8489H11.456ZM13.472 59.9449H9.504L8.96 65.5449H2.72L0.8 46.1529H15.072C17.312 46.1529 19.1253 46.7289 20.512 47.8809C21.92 49.0116 22.624 50.6436 22.624 52.7769C22.624 54.0782 22.3573 55.2089 21.824 56.1689C21.312 57.1289 20.608 57.8756 19.712 58.4089C17.984 59.4329 15.904 59.9449 13.472 59.9449ZM29.2133 65.8649C27.5706 65.8649 26.2159 65.3849 25.1493 64.4249C24.1039 63.4649 23.5813 62.1102 23.5813 60.3609C23.5813 58.5902 24.1786 57.3102 25.3733 56.5209C26.5679 55.7102 28.0079 55.3049 29.6933 55.3049C31.3786 55.3049 32.8399 55.5716 34.0773 56.1049C33.7999 54.3342 32.6799 53.4489 30.7173 53.4489C29.8213 53.4489 28.7119 53.6302 27.3893 53.9929L26.5893 51.1129C28.5093 50.3236 30.4613 49.9289 32.4453 49.9289C38.1626 49.9289 41.0213 52.3609 41.0213 57.2249C41.0213 58.8889 40.8293 61.1929 40.4453 64.1369L40.2853 65.5449H35.0053L34.8133 63.7849C33.3626 65.1716 31.4959 65.8649 29.2133 65.8649ZM32.0933 61.8969C33.0533 61.8969 33.8746 61.6302 34.5573 61.0969L34.3653 58.9849C33.8319 58.6222 33.2346 58.4409 32.5733 58.4409C31.9333 58.4409 31.3999 58.6009 30.9733 58.9209C30.5679 59.2409 30.3653 59.6356 30.3653 60.1049C30.3653 60.5742 30.5253 60.9902 30.8453 61.3529C31.1653 61.7156 31.5813 61.8969 32.0933 61.8969ZM54.0328 61.9929V61.7369C53.9688 62.0996 53.7981 62.5049 53.5208 62.9529C53.2648 63.3796 52.9768 63.7422 52.6568 64.0409C52.3368 64.3396 51.8781 64.6062 51.2808 64.8409C50.7048 65.0756 49.9368 65.1929 48.9768 65.1929C48.0168 65.1929 47.1101 64.9796 46.2568 64.5529C45.4034 64.1049 44.7421 63.4969 44.2728 62.7289C43.3768 61.2996 42.9288 59.7316 42.9288 58.0249C42.9288 56.2969 43.1741 53.7476 43.6648 50.3769H49.8728V57.2889C49.8728 59.6356 50.5661 60.8089 51.9528 60.8089C52.5714 60.8089 53.0301 60.5316 53.3288 59.9769C53.6274 59.4222 53.7768 58.7182 53.7768 57.8649C53.7768 57.7582 53.7768 57.6409 53.7768 57.5129L53.4888 50.3769H60.6888L60.2408 60.2009C60.1768 61.5876 60.0701 62.7716 59.9208 63.7529C59.7928 64.7342 59.5368 65.7369 59.1528 66.7609C58.7901 67.8062 58.3101 68.6489 57.7128 69.2889C56.3261 70.7396 54.2674 71.4649 51.5368 71.4649C49.6168 71.4649 47.8141 70.8676 46.1288 69.6729L45.8408 69.4809L47.1848 66.7289C48.2088 67.1982 49.1688 67.4329 50.0648 67.4329C51.3021 67.4329 52.2728 66.9529 52.9768 65.9929C53.6808 65.0542 54.0328 63.7209 54.0328 61.9929ZM81.98 55.3049V62.8249C81.7027 63.1022 81.2333 63.4329 80.572 63.8169C79.9107 64.2009 79.2493 64.5209 78.588 64.7769C76.86 65.5022 74.94 65.8649 72.828 65.8649C69.308 65.8649 66.6413 65.0116 64.828 63.3049C63.036 61.5769 62.14 59.0809 62.14 55.8169C62.14 52.5529 63.0573 50.0569 64.892 48.3289C66.748 46.5796 69.3187 45.7049 72.604 45.7049C75.164 45.7049 77.5 46.2382 79.612 47.3049C80.1027 47.5396 80.4653 47.7422 80.7 47.9129L81.02 48.1689L79.612 51.0169C78.6093 50.5902 77.4147 50.3769 76.028 50.3769C72.4867 50.3769 70.716 52.2116 70.716 55.8809C70.716 57.7796 71.1213 59.2622 71.932 60.3289C72.7427 61.3956 73.8093 61.9289 75.132 61.9289C75.6653 61.9289 76.188 61.8222 76.7 61.6089L75.964 58.5369H73.596L74.236 55.3049H81.98ZM89.057 65.8649C87.4143 65.8649 86.0597 65.3849 84.993 64.4249C83.9477 63.4649 83.425 62.1102 83.425 60.3609C83.425 58.5902 84.0223 57.3102 85.217 56.5209C86.4117 55.7102 87.8517 55.3049 89.537 55.3049C91.2223 55.3049 92.6837 55.5716 93.921 56.1049C93.6437 54.3342 92.5237 53.4489 90.561 53.4489C89.665 53.4489 88.5557 53.6302 87.233 53.9929L86.433 51.1129C88.353 50.3236 90.305 49.9289 92.289 49.9289C98.0063 49.9289 100.865 52.3609 100.865 57.2249C100.865 58.8889 100.673 61.1929 100.289 64.1369L100.129 65.5449H94.849L94.657 63.7849C93.2063 65.1716 91.3397 65.8649 89.057 65.8649ZM91.937 61.8969C92.897 61.8969 93.7183 61.6302 94.401 61.0969L94.209 58.9849C93.6757 58.6222 93.0783 58.4409 92.417 58.4409C91.777 58.4409 91.2437 58.6009 90.817 58.9209C90.4117 59.2409 90.209 59.6356 90.209 60.1049C90.209 60.5742 90.369 60.9902 90.689 61.3529C91.009 61.7156 91.425 61.8969 91.937 61.8969ZM111.253 59.8489C111.231 61.0862 111.669 61.7049 112.565 61.7049C112.821 61.7049 113.13 61.5876 113.493 61.3529L114.165 64.4569C114.037 64.5636 113.855 64.7022 113.621 64.8729C113.407 65.0222 112.927 65.2249 112.181 65.4809C111.455 65.7369 110.698 65.8649 109.909 65.8649C108.458 65.8649 107.274 65.3742 106.357 64.3929C105.439 63.3902 104.949 62.1209 104.885 60.5849L104.597 54.5369H102.133L102.517 50.3769H104.437L104.309 47.2409L111.893 45.7049L111.669 50.3769H113.525L113.909 54.5369H111.477L111.253 59.8489ZM124.437 65.8649C122.026 65.8649 120 65.1716 118.357 63.7849C116.736 62.3769 115.925 60.3182 115.925 57.6089C115.925 55.9022 116.341 54.4516 117.173 53.2569C118.688 51.0382 121.034 49.9289 124.213 49.9289C126.645 49.9289 128.501 50.4196 129.781 51.4009C131.061 52.3609 131.701 53.6942 131.701 55.4009C131.701 56.7236 131.168 57.8009 130.101 58.6329C129.056 59.4436 127.52 59.8489 125.493 59.8489C124.661 59.8489 123.914 59.7849 123.253 59.6569L122.901 59.5929C123.008 60.3609 123.338 60.9369 123.893 61.3209C124.469 61.6836 125.152 61.8649 125.941 61.8649C127.242 61.8649 128.352 61.4702 129.269 60.6809L131.253 63.0809C130.912 63.4862 130.506 63.8702 130.037 64.2329C129.568 64.5742 128.821 64.9369 127.797 65.3209C126.773 65.6836 125.653 65.8649 124.437 65.8649ZM127.029 55.1129C127.029 54.6862 126.858 54.3342 126.517 54.0569C126.197 53.7796 125.749 53.6409 125.173 53.6409C124.597 53.6409 124.053 53.8969 123.541 54.4089C123.05 54.9209 122.805 55.5289 122.805 56.2329C123.274 56.4462 123.882 56.5529 124.629 56.5529C125.397 56.5529 125.984 56.4249 126.389 56.1689C126.816 55.8916 127.029 55.5396 127.029 55.1129Z" fill="#787878"/>
<path d="M11.456 55.8489C12.4373 55.8489 13.216 55.5502 13.792 54.9529C14.368 54.3556 14.656 53.6302 14.656 52.7769C14.656 51.9022 14.3787 51.2516 13.824 50.8249C13.2907 50.3769 12.5973 50.1529 11.744 50.1529H10.464L9.92 55.8489H11.456ZM13.472 59.9449H9.504L8.96 65.5449H2.72L0.8 46.1529H15.072C17.312 46.1529 19.1253 46.7289 20.512 47.8809C21.92 49.0116 22.624 50.6436 22.624 52.7769C22.624 54.0782 22.3573 55.2089 21.824 56.1689C21.312 57.1289 20.608 57.8756 19.712 58.4089C17.984 59.4329 15.904 59.9449 13.472 59.9449ZM29.2133 65.8649C27.5706 65.8649 26.2159 65.3849 25.1493 64.4249C24.1039 63.4649 23.5813 62.1102 23.5813 60.3609C23.5813 58.5902 24.1786 57.3102 25.3733 56.5209C26.5679 55.7102 28.0079 55.3049 29.6933 55.3049C31.3786 55.3049 32.8399 55.5716 34.0773 56.1049C33.7999 54.3342 32.6799 53.4489 30.7173 53.4489C29.8213 53.4489 28.7119 53.6302 27.3893 53.9929L26.5893 51.1129C28.5093 50.3236 30.4613 49.9289 32.4453 49.9289C38.1626 49.9289 41.0213 52.3609 41.0213 57.2249C41.0213 58.8889 40.8293 61.1929 40.4453 64.1369L40.2853 65.5449H35.0053L34.8133 63.7849C33.3626 65.1716 31.4959 65.8649 29.2133 65.8649ZM32.0933 61.8969C33.0533 61.8969 33.8746 61.6302 34.5573 61.0969L34.3653 58.9849C33.8319 58.6222 33.2346 58.4409 32.5733 58.4409C31.9333 58.4409 31.3999 58.6009 30.9733 58.9209C30.5679 59.2409 30.3653 59.6356 30.3653 60.1049C30.3653 60.5742 30.5253 60.9902 30.8453 61.3529C31.1653 61.7156 31.5813 61.8969 32.0933 61.8969ZM54.0328 61.9929V61.7369C53.9688 62.0996 53.7981 62.5049 53.5208 62.9529C53.2648 63.3796 52.9768 63.7422 52.6568 64.0409C52.3368 64.3396 51.8781 64.6062 51.2808 64.8409C50.7048 65.0756 49.9368 65.1929 48.9768 65.1929C48.0168 65.1929 47.1101 64.9796 46.2568 64.5529C45.4034 64.1049 44.7421 63.4969 44.2728 62.7289C43.3768 61.2996 42.9288 59.7316 42.9288 58.0249C42.9288 56.2969 43.1741 53.7476 43.6648 50.3769H49.8728V57.2889C49.8728 59.6356 50.5661 60.8089 51.9528 60.8089C52.5714 60.8089 53.0301 60.5316 53.3288 59.9769C53.6274 59.4222 53.7768 58.7182 53.7768 57.8649C53.7768 57.7582 53.7768 57.6409 53.7768 57.5129L53.4888 50.3769H60.6888L60.2408 60.2009C60.1768 61.5876 60.0701 62.7716 59.9208 63.7529C59.7928 64.7342 59.5368 65.7369 59.1528 66.7609C58.7901 67.8062 58.3101 68.6489 57.7128 69.2889C56.3261 70.7396 54.2674 71.4649 51.5368 71.4649C49.6168 71.4649 47.8141 70.8676 46.1288 69.6729L45.8408 69.4809L47.1848 66.7289C48.2088 67.1982 49.1688 67.4329 50.0648 67.4329C51.3021 67.4329 52.2728 66.9529 52.9768 65.9929C53.6808 65.0542 54.0328 63.7209 54.0328 61.9929ZM81.98 55.3049V62.8249C81.7027 63.1022 81.2333 63.4329 80.572 63.8169C79.9107 64.2009 79.2493 64.5209 78.588 64.7769C76.86 65.5022 74.94 65.8649 72.828 65.8649C69.308 65.8649 66.6413 65.0116 64.828 63.3049C63.036 61.5769 62.14 59.0809 62.14 55.8169C62.14 52.5529 63.0573 50.0569 64.892 48.3289C66.748 46.5796 69.3187 45.7049 72.604 45.7049C75.164 45.7049 77.5 46.2382 79.612 47.3049C80.1027 47.5396 80.4653 47.7422 80.7 47.9129L81.02 48.1689L79.612 51.0169C78.6093 50.5902 77.4147 50.3769 76.028 50.3769C72.4867 50.3769 70.716 52.2116 70.716 55.8809C70.716 57.7796 71.1213 59.2622 71.932 60.3289C72.7427 61.3956 73.8093 61.9289 75.132 61.9289C75.6653 61.9289 76.188 61.8222 76.7 61.6089L75.964 58.5369H73.596L74.236 55.3049H81.98ZM89.057 65.8649C87.4143 65.8649 86.0597 65.3849 84.993 64.4249C83.9477 63.4649 83.425 62.1102 83.425 60.3609C83.425 58.5902 84.0223 57.3102 85.217 56.5209C86.4117 55.7102 87.8517 55.3049 89.537 55.3049C91.2223 55.3049 92.6837 55.5716 93.921 56.1049C93.6437 54.3342 92.5237 53.4489 90.561 53.4489C89.665 53.4489 88.5557 53.6302 87.233 53.9929L86.433 51.1129C88.353 50.3236 90.305 49.9289 92.289 49.9289C98.0063 49.9289 100.865 52.3609 100.865 57.2249C100.865 58.8889 100.673 61.1929 100.289 64.1369L100.129 65.5449H94.849L94.657 63.7849C93.2063 65.1716 91.3397 65.8649 89.057 65.8649ZM91.937 61.8969C92.897 61.8969 93.7183 61.6302 94.401 61.0969L94.209 58.9849C93.6757 58.6222 93.0783 58.4409 92.417 58.4409C91.777 58.4409 91.2437 58.6009 90.817 58.9209C90.4117 59.2409 90.209 59.6356 90.209 60.1049C90.209 60.5742 90.369 60.9902 90.689 61.3529C91.009 61.7156 91.425 61.8969 91.937 61.8969ZM111.253 59.8489C111.231 61.0862 111.669 61.7049 112.565 61.7049C112.821 61.7049 113.13 61.5876 113.493 61.3529L114.165 64.4569C114.037 64.5636 113.855 64.7022 113.621 64.8729C113.407 65.0222 112.927 65.2249 112.181 65.4809C111.455 65.7369 110.698 65.8649 109.909 65.8649C108.458 65.8649 107.274 65.3742 106.357 64.3929C105.439 63.3902 104.949 62.1209 104.885 60.5849L104.597 54.5369H102.133L102.517 50.3769H104.437L104.309 47.2409L111.893 45.7049L111.669 50.3769H113.525L113.909 54.5369H111.477L111.253 59.8489ZM124.437 65.8649C122.026 65.8649 120 65.1716 118.357 63.7849C116.736 62.3769 115.925 60.3182 115.925 57.6089C115.925 55.9022 116.341 54.4516 117.173 53.2569C118.688 51.0382 121.034 49.9289 124.213 49.9289C126.645 49.9289 128.501 50.4196 129.781 51.4009C131.061 52.3609 131.701 53.6942 131.701 55.4009C131.701 56.7236 131.168 57.8009 130.101 58.6329C129.056 59.4436 127.52 59.8489 125.493 59.8489C124.661 59.8489 123.914 59.7849 123.253 59.6569L122.901 59.5929C123.008 60.3609 123.338 60.9369 123.893 61.3209C124.469 61.6836 125.152 61.8649 125.941 61.8649C127.242 61.8649 128.352 61.4702 129.269 60.6809L131.253 63.0809C130.912 63.4862 130.506 63.8702 130.037 64.2329C129.568 64.5742 128.821 64.9369 127.797 65.3209C126.773 65.6836 125.653 65.8649 124.437 65.8649ZM127.029 55.1129C127.029 54.6862 126.858 54.3342 126.517 54.0569C126.197 53.7796 125.749 53.6409 125.173 53.6409C124.597 53.6409 124.053 53.8969 123.541 54.4089C123.05 54.9209 122.805 55.5289 122.805 56.2329C123.274 56.4462 123.882 56.5529 124.629 56.5529C125.397 56.5529 125.984 56.4249 126.389 56.1689C126.816 55.8916 127.029 55.5396 127.029 55.1129Z" fill="#FF1F00" fill-opacity="0.1"/>
</svg>
