<svg width="154" height="102" viewBox="0 0 154 102" fill="none" xmlns="http://www.w3.org/2000/svg">
<path d="M80.0324 18.731H76.3094C75.8155 18.731 75.4062 19.1364 75.4062 19.6323V100.623C75.4062 101.117 75.8135 101.524 76.3094 101.524H80.0324C80.5302 101.524 80.9356 101.119 80.9356 100.623V19.6323C80.9356 19.1384 80.5302 18.731 80.0324 18.731ZM92.9999 47.9758H89.2769C88.781 47.9758 88.3737 48.3831 88.3737 48.877V64.1861C88.3737 64.68 88.7791 65.0893 89.2769 65.0893H92.9999C93.4977 65.0893 93.9011 64.68 93.9011 64.1861V48.877C93.9011 48.3831 93.4977 47.9758 92.9999 47.9758ZM152.747 17.9439H125.859V8.85489C125.859 3.96305 121.896 0 117.003 0H36.6848C31.791 0.00196775 27.8279 3.96502 27.8279 8.85489V17.9439H0.901229C0.407323 17.9439 0 18.3493 0 18.8452V22.5682C0 23.066 0.407323 23.4694 0.901229 23.4694H6.35387V100.623C6.35387 101.117 6.75923 101.524 7.2551 101.524H10.9781C11.4759 101.524 11.8793 101.119 11.8793 100.623V23.4694H16.6137V100.623C16.6137 101.117 17.0211 101.524 17.5169 101.524H21.2399C21.7378 101.524 22.1431 101.119 22.1431 100.623V23.4694H27.8338V101.66H33.682V8.85489C33.684 7.1941 35.0279 5.85013 36.6907 5.85013H117.008C118.669 5.85013 120.015 7.1941 120.017 8.85489V101.658H125.865V23.4694H131.099V100.623C131.099 101.117 131.507 101.524 132.001 101.524H135.724C136.222 101.524 136.623 101.119 136.623 100.623V23.4694H140.818V100.623C140.818 101.117 141.226 101.524 141.719 101.524H145.442C145.94 101.524 146.344 101.119 146.344 100.623V23.4694H152.753C153.25 23.4694 153.656 23.066 153.656 22.5682V18.8452C153.65 18.3493 153.243 17.9439 152.747 17.9439ZM67.8874 47.9758H64.1644C63.6686 47.9758 63.2612 48.3831 63.2612 48.877V64.1861C63.2612 64.68 63.6686 65.0893 64.1644 65.0893H67.8874C68.3853 65.0893 68.7887 64.68 68.7887 64.1861V48.877C68.7887 48.3831 68.3853 47.9758 67.8874 47.9758Z" fill="#FE7339"/>
<path d="M80.0324 18.731H76.3094C75.8155 18.731 75.4062 19.1364 75.4062 19.6323V100.623C75.4062 101.117 75.8135 101.524 76.3094 101.524H80.0324C80.5302 101.524 80.9356 101.119 80.9356 100.623V19.6323C80.9356 19.1384 80.5302 18.731 80.0324 18.731ZM92.9999 47.9758H89.2769C88.781 47.9758 88.3737 48.3831 88.3737 48.877V64.1861C88.3737 64.68 88.7791 65.0893 89.2769 65.0893H92.9999C93.4977 65.0893 93.9011 64.68 93.9011 64.1861V48.877C93.9011 48.3831 93.4977 47.9758 92.9999 47.9758ZM152.747 17.9439H125.859V8.85489C125.859 3.96305 121.896 0 117.003 0H36.6848C31.791 0.00196775 27.8279 3.96502 27.8279 8.85489V17.9439H0.901229C0.407323 17.9439 0 18.3493 0 18.8452V22.5682C0 23.066 0.407323 23.4694 0.901229 23.4694H6.35387V100.623C6.35387 101.117 6.75923 101.524 7.2551 101.524H10.9781C11.4759 101.524 11.8793 101.119 11.8793 100.623V23.4694H16.6137V100.623C16.6137 101.117 17.0211 101.524 17.5169 101.524H21.2399C21.7378 101.524 22.1431 101.119 22.1431 100.623V23.4694H27.8338V101.66H33.682V8.85489C33.684 7.1941 35.0279 5.85013 36.6907 5.85013H117.008C118.669 5.85013 120.015 7.1941 120.017 8.85489V101.658H125.865V23.4694H131.099V100.623C131.099 101.117 131.507 101.524 132.001 101.524H135.724C136.222 101.524 136.623 101.119 136.623 100.623V23.4694H140.818V100.623C140.818 101.117 141.226 101.524 141.719 101.524H145.442C145.94 101.524 146.344 101.119 146.344 100.623V23.4694H152.753C153.25 23.4694 153.656 23.066 153.656 22.5682V18.8452C153.65 18.3493 153.243 17.9439 152.747 17.9439ZM67.8874 47.9758H64.1644C63.6686 47.9758 63.2612 48.3831 63.2612 48.877V64.1861C63.2612 64.68 63.6686 65.0893 64.1644 65.0893H67.8874C68.3853 65.0893 68.7887 64.68 68.7887 64.1861V48.877C68.7887 48.3831 68.3853 47.9758 67.8874 47.9758Z" fill="#271F1F" fill-opacity="0.3"/>
<path d="M80.0324 18.731H76.3094C75.8155 18.731 75.4062 19.1364 75.4062 19.6323V100.623C75.4062 101.117 75.8135 101.524 76.3094 101.524H80.0324C80.5302 101.524 80.9356 101.119 80.9356 100.623V19.6323C80.9356 19.1384 80.5302 18.731 80.0324 18.731ZM92.9999 47.9758H89.2769C88.781 47.9758 88.3737 48.3831 88.3737 48.877V64.1861C88.3737 64.68 88.7791 65.0893 89.2769 65.0893H92.9999C93.4977 65.0893 93.9011 64.68 93.9011 64.1861V48.877C93.9011 48.3831 93.4977 47.9758 92.9999 47.9758ZM152.747 17.9439H125.859V8.85489C125.859 3.96305 121.896 0 117.003 0H36.6848C31.791 0.00196775 27.8279 3.96502 27.8279 8.85489V17.9439H0.901229C0.407323 17.9439 0 18.3493 0 18.8452V22.5682C0 23.066 0.407323 23.4694 0.901229 23.4694H6.35387V100.623C6.35387 101.117 6.75923 101.524 7.2551 101.524H10.9781C11.4759 101.524 11.8793 101.119 11.8793 100.623V23.4694H16.6137V100.623C16.6137 101.117 17.0211 101.524 17.5169 101.524H21.2399C21.7378 101.524 22.1431 101.119 22.1431 100.623V23.4694H27.8338V101.66H33.682V8.85489C33.684 7.1941 35.0279 5.85013 36.6907 5.85013H117.008C118.669 5.85013 120.015 7.1941 120.017 8.85489V101.658H125.865V23.4694H131.099V100.623C131.099 101.117 131.507 101.524 132.001 101.524H135.724C136.222 101.524 136.623 101.119 136.623 100.623V23.4694H140.818V100.623C140.818 101.117 141.226 101.524 141.719 101.524H145.442C145.94 101.524 146.344 101.119 146.344 100.623V23.4694H152.753C153.25 23.4694 153.656 23.066 153.656 22.5682V18.8452C153.65 18.3493 153.243 17.9439 152.747 17.9439ZM67.8874 47.9758H64.1644C63.6686 47.9758 63.2612 48.3831 63.2612 48.877V64.1861C63.2612 64.68 63.6686 65.0893 64.1644 65.0893H67.8874C68.3853 65.0893 68.7887 64.68 68.7887 64.1861V48.877C68.7887 48.3831 68.3853 47.9758 67.8874 47.9758Z" fill="#271F1F" fill-opacity="0.15"/>
</svg>
